<?xml version="1.0" encoding="utf-8"?>
<!-- Generator: Adobe Illustrator 24.0.2, SVG Export Plug-In . SVG Version: 6.00 Build 0)  -->
<svg version="1.1" id="Capa_1" xmlns="http://www.w3.org/2000/svg" xmlns:xlink="http://www.w3.org/1999/xlink" x="0px" y="0px"
	 viewBox="0 0 42 42" style="enable-background:new 0 0 42 42;" xml:space="preserve">
<style type="text/css">
	.st0{fill:#FFFFFF;}
</style>
<g id="Out_line">
	<path class="st0" d="M23.7,37.7c0,1.1-0.9,2-2,2H4.3c-1.1,0-2-0.9-2-2V4.3c0-1.1,0.9-2,2-2h17.3c1.1,0,2,0.9,2,2v6H25v-6
		C25,2.5,23.5,1,21.7,1H4.3C2.5,1,1,2.5,1,4.3v33.3C1,39.5,2.5,41,4.3,41h17.3c1.8,0,3.3-1.5,3.3-3.3v-10h-1.3V37.7z"/>
	<path class="st0" d="M23,11.7V4.3C23,3.6,22.4,3,21.7,3h-7.3c-0.4,0-0.7,0.3-0.7,0.7v0.7C13.7,4.7,13.4,5,13,5s-0.7-0.3-0.7-0.7
		V3.7C12.3,3.3,12,3,11.7,3H4.3C3.6,3,3,3.6,3,4.3v33.3C3,38.4,3.6,39,4.3,39h17.3c0.7,0,1.3-0.6,1.3-1.3v-9.3h-1.3v9.3H4.3V4.3H11
		c0,1.1,0.9,2,2,2s2-0.9,2-2h6.7v7.3H23z"/>
	<path class="st0" d="M30.3,16.3h-6v-0.7c0-1.1-0.9-2-2-2s-2,0.9-2,2v0.9c-3.1,0.8-5.3,3.6-5.3,6.8v2.3c0,0.4,0.3,0.7,0.7,0.7h2.8
		c0.4,1,1.5,1.6,2.6,1.2c0.6-0.2,1-0.6,1.2-1.2h4.2c0.4,1,1.5,1.6,2.6,1.2c0.6-0.2,1-0.6,1.2-1.2h2.1c0.4,0,0.7-0.3,0.7-0.7V19
		C33,17.5,31.8,16.3,30.3,16.3z M21.7,15.7c0-0.4,0.3-0.7,0.7-0.7c0.4,0,0.7,0.3,0.7,0.7v0.7h-1c-0.1,0-0.2,0-0.4,0V15.7z
		 M20.3,26.3c-0.4,0-0.7-0.3-0.7-0.7c0-0.4,0.3-0.7,0.7-0.7c0.4,0,0.7,0.3,0.7,0.7C21,26,20.7,26.3,20.3,26.3z M28.3,26.3
		c-0.4,0-0.7-0.3-0.7-0.7c0-0.4,0.3-0.7,0.7-0.7c0.4,0,0.7,0.3,0.7,0.7C29,26,28.7,26.3,28.3,26.3z M31.7,25h-1.4
		c-0.4-1-1.5-1.6-2.6-1.2c-0.6,0.2-1,0.6-1.2,1.2h-4.2c-0.4-1-1.5-1.6-2.6-1.2c-0.6,0.2-1,0.6-1.2,1.2h-2.1v-1.6
		c0-3.1,2.5-5.7,5.7-5.7h0.3v6h1.3v-6h6.7c0.7,0,1.3,0.6,1.3,1.3L31.7,25z"/>
	<path class="st0" d="M20.3,21h-2.7v1.3H21c0.4,0,0.7-0.3,0.7-0.7V19h-1.3V21z"/>
	<path class="st0" d="M28.3,18.3H27v1.3h-1.3V21H27v1.3h1.3V21h1.3v-1.3h-1.3V18.3z"/>
	<path class="st0" d="M18.1,15l0.4-1.3l1.3,0.4l-0.4,1.3L18.1,15z"/>
	<path class="st0" d="M19.4,12.6l1.1-0.8l0.8,1.2l-1.1,0.8L19.4,12.6z"/>
	<path class="st0" d="M24.8,14.2l1.3-0.4l0.4,1.3l-1.3,0.4L24.8,14.2z"/>
	<path class="st0" d="M23.4,13l0.8-1.2l1.1,0.8l-0.8,1.2L23.4,13z"/>
	<path class="st0" d="M39.7,12.3c0,1.1-0.9,2-2,2H37c-1.8,0-3.3,1.5-3.3,3.3c0,1.8,1.5,3.3,3.3,3.3h0.7c1.1,0,2,0.9,2,2s-0.9,2-2,2
		h-3.3v1.3h3.3c1.8,0,3.3-1.5,3.3-3.3s-1.5-3.3-3.3-3.3H37c-1.1,0-2-0.9-2-2c0-1.1,0.9-2,2-2h0.7c1.8,0,3.3-1.5,3.3-3.3V9.7h-1.3
		V12.3z"/>
	<path class="st0" d="M39.7,7H41v1.3h-1.3V7z"/>
	<path class="st0" d="M9.7,15C7.1,15,5,17.1,5,19.7c0,1.8,2.1,5,3.3,6.7H7v1.3h5.3v-1.3H11c1.2-1.7,3.3-4.9,3.3-6.7
		C14.3,17.1,12.2,15,9.7,15z M9.7,16.3c1.8,0,3.3,1.5,3.3,3.3c0,1.3-1.9,4.2-3.3,6.2c-1.5-2-3.3-4.9-3.3-6.2
		C6.3,17.8,7.8,16.3,9.7,16.3z"/>
	<path class="st0" d="M12.3,19.7c0-1.5-1.2-2.7-2.7-2.7S7,18.2,7,19.7c0,1.5,1.2,2.7,2.7,2.7C11.1,22.3,12.3,21.1,12.3,19.7z
		 M8.3,19.7c0-0.7,0.6-1.3,1.3-1.3s1.3,0.6,1.3,1.3c0,0.7-0.6,1.3-1.3,1.3C8.9,21,8.3,20.4,8.3,19.7z"/>
</g>
</svg>
