<?xml version="1.0" encoding="utf-8"?>
<!-- Generator: Adobe Illustrator 24.0.2, SVG Export Plug-In . SVG Version: 6.00 Build 0)  -->
<svg version="1.1" id="Capa_1" xmlns="http://www.w3.org/2000/svg" xmlns:xlink="http://www.w3.org/1999/xlink" x="0px" y="0px"
	 viewBox="0 0 42 42" style="enable-background:new 0 0 42 42;" xml:space="preserve">
<style type="text/css">
	.st0{fill:#FFFFFF;}
</style>
<g>
	<path class="st0" d="M31.3,20.7c-0.5-0.8-1.4-1.4-2.3-1.6V7.7c0-1.8-1.5-3.3-3.3-3.3h-5.5c-0.2-0.4-0.7-0.7-1.1-0.7h-0.9
		c-0.7-2.1-3-3.2-5.1-2.4c-1.1,0.4-2,1.3-2.4,2.4H9.7c-0.5,0-0.9,0.3-1.1,0.7H4.3C2.5,4.3,1,5.8,1,7.7v28C1,37.5,2.5,39,4.3,39H16
		c0,0.1,0.1,0.1,0.1,0.2c0.6,1.1,1.8,1.8,3.1,1.8h18.3c1.3,0,2.5-0.7,3.1-1.8c0.6-1.1,0.6-2.5-0.1-3.6L31.3,20.7z M27.7,7.7v11.4
		c-0.5,0.1-0.9,0.3-1.3,0.6V8.3C26.3,7.6,25.7,7,25,7h-4.7V5.7h5.3C26.8,5.7,27.7,6.6,27.7,7.7z M9.7,5h1.4c0.3,0,0.6-0.2,0.7-0.5
		C12,3,13.4,2.1,14.9,2.4c1,0.2,1.9,1,2.1,2.1C17,4.8,17.3,5,17.6,5H19v2.7H9.7V5z M19,9c0.5,0,0.9-0.3,1.1-0.7H25v12.9L16.5,35H5
		V8.3h3.5C8.8,8.7,9.2,9,9.7,9H19z M4.3,37.7c-1.1,0-2-0.9-2-2v-28c0-1.1,0.9-2,2-2h4V7H5C4.3,7,3.7,7.6,3.7,8.3V35
		c0,0.7,0.6,1.3,1.3,1.3h10.8c-0.1,0.4-0.2,0.9-0.2,1.3H4.3z M39.4,38.5c-0.4,0.7-1.1,1.1-1.9,1.1H19.2c-0.8,0-1.5-0.4-1.9-1.1
		c-0.4-0.7-0.4-1.6,0-2.3l9.1-14.9c0.6-1,2-1.4,3-0.7c0.3,0.2,0.6,0.4,0.7,0.7l9.1,14.9C39.8,36.9,39.8,37.8,39.4,38.5z"/>
	<path class="st0" d="M28.3,23c-1.1,0-2,0.9-2,2v6c0,1.1,0.9,2,2,2c1.1,0,2-0.9,2-2v-6C30.3,23.9,29.4,23,28.3,23z M29,31
		c0,0.4-0.3,0.7-0.7,0.7c-0.4,0-0.7-0.3-0.7-0.7v-6c0-0.4,0.3-0.7,0.7-0.7c0.4,0,0.7,0.3,0.7,0.7V31z"/>
	<path class="st0" d="M28.3,34.3c-1.1,0-2,0.9-2,2c0,1.1,0.9,2,2,2c1.1,0,2-0.9,2-2C30.3,35.2,29.4,34.3,28.3,34.3z M28.3,37
		c-0.4,0-0.7-0.3-0.7-0.7s0.3-0.7,0.7-0.7c0.4,0,0.7,0.3,0.7,0.7S28.7,37,28.3,37z"/>
	<path class="st0" d="M14.3,13.7H23c0.4,0,0.7-0.3,0.7-0.7c0-0.4-0.3-0.7-0.7-0.7h-8.7c-0.4,0-0.7,0.3-0.7,0.7
		C13.7,13.4,14,13.7,14.3,13.7z"/>
	<path class="st0" d="M14.3,16.3h4c0.4,0,0.7-0.3,0.7-0.7S18.7,15,18.3,15h-4c-0.4,0-0.7,0.3-0.7,0.7S14,16.3,14.3,16.3z"/>
	<path class="st0" d="M14.3,21H23c0.4,0,0.7-0.3,0.7-0.7s-0.3-0.7-0.7-0.7h-8.7c-0.4,0-0.7,0.3-0.7,0.7S14,21,14.3,21z"/>
	<path class="st0" d="M14.3,23.7h4c0.4,0,0.7-0.3,0.7-0.7s-0.3-0.7-0.7-0.7h-4c-0.4,0-0.7,0.3-0.7,0.7S14,23.7,14.3,23.7z"/>
	<path class="st0" d="M14.3,28.3H19c0.4,0,0.7-0.3,0.7-0.7S19.4,27,19,27h-4.7c-0.4,0-0.7,0.3-0.7,0.7S14,28.3,14.3,28.3z"/>
	<path class="st0" d="M14.3,31H17c0.4,0,0.7-0.3,0.7-0.7c0-0.4-0.3-0.7-0.7-0.7h-2.7c-0.4,0-0.7,0.3-0.7,0.7
		C13.7,30.7,14,31,14.3,31z"/>
	<path class="st0" d="M7.2,15.2c-0.3,0.3-0.3,0.7,0,0.9l1.3,1.3c0.1,0.1,0.3,0.2,0.5,0.2c0,0,0.1,0,0.1,0c0.2,0,0.4-0.2,0.5-0.4
		l2.7-5.3c0.2-0.3,0-0.7-0.3-0.9c-0.3-0.2-0.7,0-0.9,0.3l-2.3,4.5l-0.7-0.7C7.9,14.9,7.5,14.9,7.2,15.2z"/>
	<path class="st0" d="M12,18.4c-0.3-0.2-0.7,0-0.9,0.3c0,0,0,0,0,0l-2.3,4.5l-0.7-0.7c-0.3-0.3-0.7-0.2-0.9,0
		c-0.2,0.3-0.2,0.7,0,0.9l1.3,1.3C8.7,24.9,8.8,25,9,25c0,0,0.1,0,0.1,0c0.2,0,0.4-0.2,0.5-0.4l2.7-5.3C12.4,19,12.3,18.6,12,18.4
		C12,18.4,12,18.4,12,18.4z"/>
	<path class="st0" d="M12,25.7c-0.3-0.2-0.7,0-0.9,0.3c0,0,0,0,0,0l-2.3,4.5l-0.7-0.7c-0.3-0.3-0.7-0.2-0.9,0
		c-0.2,0.3-0.2,0.7,0,0.9l1.3,1.3c0.1,0.1,0.3,0.2,0.5,0.2c0,0,0.1,0,0.1,0c0.2,0,0.4-0.2,0.5-0.4l2.7-5.3
		C12.4,26.3,12.3,25.9,12,25.7C12,25.7,12,25.7,12,25.7z"/>
</g>
</svg>
