<?xml version="1.0" encoding="utf-8"?>
<!-- Generator: Adobe Illustrator 24.0.2, SVG Export Plug-In . SVG Version: 6.00 Build 0)  -->
<svg version="1.1" id="Capa_1" xmlns="http://www.w3.org/2000/svg" xmlns:xlink="http://www.w3.org/1999/xlink" x="0px" y="0px"
	 viewBox="0 0 42 42" style="enable-background:new 0 0 42 42;" xml:space="preserve">
<style type="text/css">
	.st0{fill:#FFFFFF;}
</style>
<g>
	<g>
		<g>
			<g>
				<path class="st0" d="M26.2,21.6c2.3-0.1,3.6-1.6,3.6-3.8c0-0.2,0-0.3,0-0.5c1.5-1,2.2-2.3,2.2-4.3c0-2-0.6-3.3-2.2-4.3
					c0-0.2,0-0.3,0-0.5c0-2.3-1.4-3.7-3.6-3.8c-0.6-1.1-1.8-1.8-3.1-1.8c-0.8,0-1.4,0.2-1.9,0.7C21.1,3.3,21,3.3,21,3.4
					c0-0.1-0.1-0.1-0.2-0.2c-0.5-0.5-1.1-0.7-1.9-0.7c-1.4,0-2.5,0.7-3.1,1.8c-2.3,0.1-3.6,1.6-3.6,3.8c0,0.2,0,0.3,0,0.5
					C10.7,9.7,10,11,10,13c0,2,0.6,3.3,2.2,4.3c0,0.2,0,0.3,0,0.5c0,2.3,1.4,3.7,3.6,3.8c0.6,1.1,1.8,1.8,3.1,1.8c0,0,0,0,0.1,0
					c0.8,0,1.4-0.2,1.9-0.7c0.1-0.1,0.1-0.1,0.2-0.2c0,0.1,0.1,0.1,0.2,0.2c0.5,0.5,1.1,0.7,1.9,0.7c0,0,0,0,0.1,0
					C24.5,23.4,25.6,22.7,26.2,21.6L26.2,21.6z M20.2,19.8c0,0.9-0.2,1.5-0.5,1.8c-0.2,0.2-0.5,0.3-0.8,0.3c-0.8,0-1.5-0.4-1.8-1.1
					c0.1-0.2,0.3-0.4,0.5-0.5c0.3-0.2,0.6-0.2,0.9-0.1c0.4,0.1,0.8-0.1,1-0.6c0.1-0.4-0.1-0.8-0.6-1c-0.7-0.2-1.5-0.1-2.1,0.3
					c-0.5,0.3-0.8,0.6-1.1,1.1c-1.4-0.1-2.1-0.9-2.1-2.3c0-0.2,0-0.4,0.1-0.5c0.1-0.5-0.1-0.9-0.5-1.2c-1.2-0.7-1.7-1.5-1.7-3.1
					c0-1.6,0.4-2.4,1.7-3.1c0.4-0.2,0.6-0.7,0.5-1.2c0-0.2-0.1-0.4-0.1-0.5c0-1.5,0.8-2.3,2.4-2.3h0c0,0,0,0,0.1,0
					c0.4,0.2,0.6,0.6,0.5,1c-0.1,0.4,0.1,0.8,0.6,1c0.1,0,0.1,0,0.2,0c0.3,0,0.7-0.2,0.8-0.6c0.3-1-0.1-1.9-0.8-2.5
					c0.4-0.5,0.9-0.7,1.6-0.7c0.4,0,0.6,0.1,0.8,0.3c0.3,0.3,0.5,0.9,0.5,1.8L20.2,19.8z M25.4,19c0.1-0.4-0.1-0.8-0.6-1
					c-0.4-0.1-0.8,0.1-1,0.6c-0.3,1,0.1,1.9,0.8,2.5c-0.4,0.5-0.9,0.7-1.6,0.7c-0.4,0-0.6-0.1-0.8-0.3c-0.3-0.3-0.5-0.9-0.5-1.8V6.1
					c0-0.9,0.2-1.5,0.5-1.8c0.2-0.2,0.5-0.3,0.8-0.3c0.8,0,1.5,0.4,1.8,1.1c-0.1,0.2-0.3,0.4-0.5,0.5c-0.3,0.2-0.6,0.2-0.9,0.1
					c-0.4-0.1-0.8,0.1-1,0.6c-0.1,0.4,0.1,0.8,0.6,1c0.2,0.1,0.5,0.1,0.7,0.1c0.5,0,1-0.1,1.4-0.4c0.5-0.3,0.8-0.6,1.1-1.1
					c1.4,0.1,2.1,0.9,2.1,2.3c0,0.2,0,0.4-0.1,0.5c-0.1,0.5,0.1,0.9,0.5,1.2c1.2,0.7,1.7,1.5,1.7,3.1c0,1.6-0.4,2.4-1.7,3.1
					c-0.4,0.2-0.6,0.7-0.5,1.2c0,0.2,0.1,0.4,0.1,0.5c0,1.5-0.8,2.3-2.4,2.3h0c0,0,0,0-0.1,0C25.5,19.8,25.2,19.4,25.4,19L25.4,19z"
					/>
				<path class="st0" d="M16.6,11.4c-0.9,0-1.7,0.5-2.1,1.4c-0.4,0.8-0.2,1.8,0.4,2.5c0,0,0.1,0.1,0.1,0.1c0.2,0.2,0.4,0.2,0.6,0.2
					c0.2,0,0.4-0.1,0.6-0.2c0.3-0.3,0.3-0.8,0-1.1c0,0,0,0-0.1-0.1c-0.3-0.3-0.2-0.7-0.1-0.8c0-0.1,0.2-0.4,0.7-0.4
					c0.4,0,0.8-0.3,0.8-0.8C17.3,11.7,17,11.4,16.6,11.4L16.6,11.4z"/>
				<path class="st0" d="M25.9,14.2c-0.3,0.3-0.3,0.8,0,1.1c0.2,0.2,0.4,0.2,0.6,0.2c0.2,0,0.4-0.1,0.6-0.2c0,0,0.1-0.1,0.1-0.1
					c0.6-0.7,0.8-1.6,0.4-2.5c-0.4-0.8-1.2-1.4-2.1-1.4c-0.4,0-0.8,0.3-0.8,0.8c0,0.4,0.3,0.8,0.8,0.8c0.4,0,0.6,0.3,0.7,0.4
					C26.1,13.5,26.3,13.8,25.9,14.2C25.9,14.1,25.9,14.2,25.9,14.2L25.9,14.2z"/>
				<path class="st0" d="M14,23.5l-5.4-5.4v-5.8c0-1.3-1.1-2.4-2.4-2.4c0,0-0.1,0-0.1,0c-0.1,0-0.3,0-0.4,0V9.5c0-1.3-1-2.4-2.3-2.4
					C2.8,7,2.1,7.3,1.6,7.7C1.2,8.1,1,8.6,1,9.2C1,11,1,19.6,1,22.3c0,0.1,0,0.1,0,0.2c0,1.9,0.9,3.8,2.3,5.1c0,0,0,0,0,0l6.1,4.9
					v6.2c0,0.4,0.3,0.8,0.8,0.8h5.5c0.4,0,0.8-0.3,0.8-0.8v-9.2C16.5,27.3,15.6,25.1,14,23.5z M6.2,11.6L6.2,11.6
					c0.5,0,0.8,0.4,0.8,0.8v4.9c-0.4-0.1-0.9,0-1.3,0.1v-5.7C5.9,11.6,6,11.6,6.2,11.6z M15,37.9H11v-5.8c0-0.2-0.1-0.5-0.3-0.6
					l-6.4-5.1c-1.1-1-1.8-2.5-1.8-4c0-0.1,0-0.1,0-0.2c0-2.7,0-11.3,0-13.1c0-0.1,0-0.2,0.1-0.3c0.2-0.2,0.4-0.3,0.7-0.2
					c0.4,0,0.8,0.4,0.8,0.8v9.6c0,0.1,0,0.2-0.1,0.3C4,20.2,4.2,21,4.8,21.5l5.5,5.8c0.3,0.3,0.8,0.3,1.1,0c0.3-0.3,0.3-0.8,0-1.1
					l-5.5-5.8c0,0,0,0,0,0c-0.2-0.2-0.3-0.5-0.3-0.8c0-0.2,0.1-0.4,0.3-0.5C5.9,19.1,6,19,6,19c0.4-0.3,0.9-0.3,1.3,0.1c0,0,0,0,0,0
					l5.6,5.5c1.3,1.3,2,3,2,4.8L15,37.9L15,37.9z"/>
				<path class="st0" d="M41,9.2c0-0.5-0.2-1-0.6-1.4c-0.5-0.5-1.2-0.7-1.8-0.7c-1.3,0.1-2.3,1.1-2.3,2.4v0.6c-0.1,0-0.3,0-0.4,0
					c0,0-0.1,0-0.1,0c-1.3,0-2.4,1.1-2.4,2.4v5.8L28,23.5c-1.6,1.6-2.5,3.7-2.5,6v9.2c0,0.4,0.3,0.8,0.8,0.8h5.5
					c0.4,0,0.8-0.3,0.8-0.8v-6.2l6.1-4.9c0,0,0,0,0,0c1.4-1.3,2.3-3.2,2.3-5.1c0-0.1,0-0.1,0-0.2C41,19.6,41,11,41,9.2L41,9.2z
					 M35.8,11.6L35.8,11.6c0.2,0,0.4,0.1,0.5,0.2v5.7c-0.4-0.2-0.9-0.2-1.3-0.1v-4.9C35,11.9,35.3,11.6,35.8,11.6L35.8,11.6z
					 M39.4,22.4c0,1.5-0.7,2.9-1.8,4l-6.4,5.1c-0.2,0.1-0.3,0.4-0.3,0.6v5.8H27v-8.4c0-1.8,0.7-3.6,2-4.8l5.6-5.5c0,0,0,0,0,0
					c0.3-0.4,0.9-0.4,1.3-0.1c0,0,0.1,0.1,0.1,0.1c0.1,0.1,0.2,0.3,0.3,0.5c0,0.3,0,0.6-0.3,0.8c0,0,0,0,0,0l-2.8,2.9
					c-0.3,0.3-0.3,0.8,0,1.1c0.3,0.3,0.8,0.3,1.1,0l2.8-2.9c0.6-0.6,0.8-1.4,0.7-2.2c0-0.1,0-0.2-0.1-0.3V9.5c0-0.4,0.3-0.8,0.8-0.8
					c0.2,0,0.5,0.1,0.7,0.2c0.1,0.1,0.1,0.2,0.1,0.3c0,1.8,0,10.4,0,13.1C39.4,22.3,39.4,22.4,39.4,22.4L39.4,22.4z"/>
				<path class="st0" d="M32.1,26.1c-0.1-0.3-0.5-0.5-0.8-0.5c-0.3,0-0.6,0.3-0.7,0.6c-0.1,0.3,0,0.6,0.3,0.8c0.3,0.2,0.6,0.2,0.9,0
					C32.2,26.9,32.3,26.5,32.1,26.1L32.1,26.1z"/>
			</g>
		</g>
	</g>
</g>
</svg>
