<?xml version="1.0" encoding="utf-8"?>
<!-- Generator: Adobe Illustrator 24.0.2, SVG Export Plug-In . SVG Version: 6.00 Build 0)  -->
<svg version="1.1" id="Capa_1" xmlns="http://www.w3.org/2000/svg" xmlns:xlink="http://www.w3.org/1999/xlink" x="0px" y="0px"
	 viewBox="0 0 42 42" style="enable-background:new 0 0 42 42;" xml:space="preserve">
<style type="text/css">
	.st0{fill:#FFFFFF;}
</style>
<g>
	<path class="st0" d="M40.5,1.1c-0.3-0.2-0.7-0.2-1,0l-5,2.9c0,0,0,0,0,0l-1.3,0.8c-1.4-0.4-2.9-0.2-4.2,0.5L27.9,6
		c-2.1-1.2-4.4-1.8-6.9-1.8c-1.9,0-3.7,0.4-5.4,1.1c-0.1,0-0.1-0.1-0.2-0.1C15.2,5,14.9,5,14.7,5L8.5,6.7C8.3,6.8,8.1,6.8,7.9,6.9
		L7.4,6.6l0.1-0.2c0.1-0.2,0.2-0.5,0.1-0.7C7.5,5.4,7.3,5.2,7.1,5L2.5,2.3c-0.3-0.2-0.7-0.2-1,0C1.2,2.5,1,2.8,1,3.2v7.5
		c0,0.3,0.2,0.7,0.5,0.8c0.6,0.4,2.4,1.4,3.1,1.8c0.4,1.4,1.3,2.6,2.5,3.4l0,0c0,0.5-0.1,0.9-0.1,1.4c0,3.4,1.3,6.7,3.5,9.3
		c0.1,0.1,0.3,0.2,0.4,0.2c0.1,0,0.3,0,0.4-0.1c0.2-0.2,0.3-0.6,0-0.8c-2.1-2.3-3.2-5.3-3.2-8.5c0-0.3,0-0.5,0-0.8l4.1,2.4
		c0.3,0.2,0.6,0.3,0.9,0.3c0.6,0,1.2-0.3,1.5-0.8c0.1-0.2,0.2-0.4,0.3-0.7l0.6,0.3c0.9,0.5,1.9,0.2,2.4-0.6c0.1-0.2,0.2-0.5,0.3-0.7
		c0.2,0,0.3,0.1,0.5,0.1l1.5,0.9v1.8c-0.4,0.3-0.6,0.6-0.7,1c-0.2-0.1-0.5-0.1-0.8-0.1c-1,0-1.7,0.8-1.7,1.8v5.7
		c-0.8-0.5-1.9-0.4-2.6,0.3l-0.1,0.1c-0.4-0.2-0.7-0.4-1-0.7c-0.3-0.2-0.6-0.1-0.8,0.1c-0.2,0.3-0.1,0.6,0.1,0.8
		c0.4,0.3,0.8,0.5,1.2,0.8c0,0.2,0.1,0.4,0.3,0.6l4.5,4.5c0.1,0.1,0.3,0.3,0.4,0.4v0.6H19c-0.5,0-1,0.4-1,1V40c0,0.5,0.4,1,1,1h6.5
		c0.5,0,1-0.4,1-1v-4.7c1.1-1,1.6-2.4,1.6-3.9v-1.3c4.2-2.5,6.8-7,6.9-11.9c0.2-0.1,0.3-0.3,0.4-0.5l1.7-6.2
		c0.1-0.2,0.1-0.4,0.1-0.6l0.6-0.3l0.1,0.2c0.2,0.3,0.5,0.5,0.8,0.5c0.2,0,0.3,0,0.5-0.1l1.4-0.8c0.3-0.2,0.5-0.5,0.5-0.8V2
		C41,1.6,40.8,1.3,40.5,1.1L40.5,1.1z M19.6,13.4c-0.2,0.3-0.6,0.4-0.9,0.3c0,0,0,0,0,0l-4.2-2.4c-0.3-0.2-0.6-0.1-0.8,0.2
		c-0.2,0.3-0.1,0.6,0.2,0.8l4.2,2.4c0,0,0,0,0,0l1,0.6c0.3,0.2,0.4,0.6,0.2,0.9c-0.2,0.3-0.6,0.4-0.9,0.2c-1.6-1-3.6-2.1-5.2-3
		c-0.3-0.2-0.6-0.1-0.8,0.2c-0.2,0.3-0.1,0.6,0.2,0.8l4.2,2.4c0.3,0.2,0.4,0.6,0.2,0.9c-0.2,0.3-0.6,0.4-0.9,0.2l-4.2-2.4
		c-0.3-0.2-0.6-0.1-0.8,0.2c-0.2,0.3-0.1,0.6,0.2,0.8l2.1,1.2c0.3,0.2,0.4,0.6,0.2,0.9c-0.2,0.3-0.6,0.4-0.9,0.2l-5.3-3
		c-1-0.6-1.7-1.5-2-2.7c-0.1-0.3-0.2-0.5-0.5-0.6l-0.9-0.5l0.9-1.5C5.4,10,5.3,9.7,5,9.5C4.7,9.3,4.3,9.4,4.2,9.7l-0.9,1.5l-1.1-0.7
		V3.5l4.2,2.4L5.6,7.3C5.4,7.6,5.5,7.9,5.8,8.1c0.3,0.2,0.6,0.1,0.8-0.2l0.2-0.3l0.6,0.4C7.7,8.1,8,8.1,8.2,8
		c0.2-0.1,0.3-0.1,0.5-0.2l6-1.6l0.1,0.3C15,7,14.7,7.5,14.2,7.7l-0.8,0.2c-0.2,0.1-0.4,0.3-0.4,0.5c0,0.2,0.1,0.5,0.3,0.6l6.1,3.5
		C19.6,12.7,19.7,13.1,19.6,13.4L19.6,13.4z M20.2,17c0.1-0.1,0.1-0.1,0.2-0.2c0.3-0.4,0.4-0.9,0.2-1.4c-0.1-0.3-0.2-0.6-0.5-0.9
		c0.2-0.2,0.4-0.4,0.5-0.6c0.4-0.9,0.1-1.9-0.7-2.4l-4.9-2.9c0.8-0.4,1.3-1.3,1.1-2.3c1.6-0.7,3.2-1,5-1c2,0,3.9,0.5,5.7,1.3
		l-2.9,1.7c-0.9,0.5-1.2,1.5-0.7,2.4c0.1,0.2,0.3,0.4,0.5,0.6l-0.6,0.3c-0.9,0.5-1.2,1.5-0.7,2.4c0.1,0.2,0.3,0.4,0.5,0.6
		c-0.5,0.5-0.7,1.3-0.4,2L21,17.4L20.2,17z M25.3,39.8h-6.1v-2.3h6.1V39.8z M26.9,31.5c0,1.2-0.5,2.3-1.3,3.1
		c-0.2,0.2-0.3,0.4-0.3,0.7v1.1h-4.9v-0.7c0-0.3-0.1-0.6-0.4-0.8c-0.1-0.1-0.3-0.2-0.4-0.4L15.2,30l0.2-0.2c0.4-0.4,1-0.4,1.4,0
		l0.6,0.6c0.2,0.2,0.4,0.2,0.6,0.1c0.2-0.1,0.4-0.3,0.4-0.5v-7c0-0.3,0.3-0.6,0.6-0.7c0.4,0,0.7,0.3,0.7,0.6v4.9
		c0,0.3,0.3,0.6,0.6,0.6c0.3,0,0.6-0.3,0.6-0.6v-6.1c0-0.4,0.3-0.6,0.7-0.6c0.3,0,0.6,0.3,0.6,0.7v6c0,0.3,0.3,0.6,0.6,0.6
		s0.6-0.3,0.6-0.6V23c0-0.4,0.3-0.6,0.7-0.6c0.3,0,0.6,0.3,0.6,0.7v4.8c0,0.3,0.3,0.6,0.6,0.6c0.3,0,0.6-0.3,0.6-0.6v-2.5
		c0-0.4,0.3-0.6,0.7-0.6c0.3,0,0.6,0.3,0.6,0.7L26.9,31.5L26.9,31.5z M36.4,9.9c-0.3,0.2-0.4,0.4-0.5,0.7c0,0.2-0.1,0.4-0.1,0.5
		l-1.6,6L34,17.1c-0.5-0.1-0.8-0.7-0.7-1.2l0.2-0.8c0.1-0.2,0-0.5-0.2-0.6c-0.2-0.1-0.4-0.2-0.6,0l-1.8,1c-0.3,0.2-0.4,0.5-0.2,0.8
		c0.2,0.3,0.5,0.4,0.8,0.2l0.6-0.3c0,1,0.6,1.9,1.6,2.1l0.1,0c-0.1,4.2-2.2,8.1-5.7,10.5v-3.3c0-1-0.8-1.8-1.7-1.8
		c-0.2,0-0.5,0-0.7,0.1V23c0-1-0.8-1.8-1.7-1.8c-0.3,0-0.5,0-0.8,0.1C23,20.6,22.3,20,21.6,20v-1.5l1.6-0.9c0.4,0.2,0.9,0.2,1.3,0.1
		c0,0.3,0.1,0.5,0.3,0.7c0.3,0.5,0.9,0.8,1.5,0.8c0.3,0,0.6-0.1,0.9-0.3l1.9-1.1c0.3-0.2,0.4-0.5,0.2-0.8c-0.2-0.3-0.5-0.4-0.8-0.2
		L26.5,18c-0.3,0.2-0.7,0.1-0.9-0.2c-0.2-0.3-0.1-0.7,0.2-0.9l0,0l4.2-2.4c0.3-0.2,0.4-0.5,0.2-0.8s-0.5-0.4-0.8-0.2l-4.2,2.4
		c0,0,0,0,0,0c0,0,0,0,0,0l-1,0.6c-0.3,0.2-0.7,0.1-0.9-0.3c-0.2-0.3,0-0.7,0.3-0.8l1-0.6c0,0,0,0,0,0c0,0,0,0,0,0l4.2-2.4
		c0.3-0.2,0.4-0.5,0.2-0.8c-0.2-0.3-0.5-0.4-0.8-0.2l-4.2,2.4c0,0,0,0,0,0c-0.3,0.2-0.7,0.1-0.9-0.3c-0.2-0.3,0-0.7,0.3-0.8l2-1.2
		c0,0,0,0,0,0l2.1-1.2c0.3-0.2,0.4-0.5,0.2-0.8c-0.2-0.3-0.5-0.4-0.8-0.2l-2.1,1.2l0,0c-0.3,0.2-0.7,0.1-0.9-0.3
		c-0.2-0.3,0-0.7,0.3-0.8l5.3-3c1-0.6,2.2-0.7,3.3-0.4c0.3,0.1,0.5,0,0.8-0.1l0.9-0.5l2.4,4.2L36.4,9.9z M39.8,9.4L38.7,10l-0.3-0.5
		c0,0,0,0,0,0c0,0,0,0,0,0l-2.7-4.7l4.2-2.4L39.8,9.4L39.8,9.4z"/>
</g>
</svg>
